<svg width="72" height="72" viewBox="0 0 72 72" fill="none" xmlns="http://www.w3.org/2000/svg">
<path d="M49.7101 65.9999C50.5069 66.0045 51.2966 65.8504 52.0332 65.5465C52.7697 65.2426 53.4384 64.795 54.0001 64.2299L62.1301 56.0999C62.6889 55.5378 63.0025 54.7775 63.0025 53.9849C63.0025 53.1924 62.6889 52.432 62.1301 51.8699L50.1301 39.8699C49.568 39.3112 48.8077 38.9976 48.0151 38.9976C47.2225 38.9976 46.4622 39.3112 45.9001 39.8699L41.1001 44.6399C37.7769 43.7539 34.699 42.1226 32.1001 39.8699C29.8535 37.2669 28.223 34.1905 27.3301 30.8699L32.1001 26.0699C32.6589 25.5078 32.9725 24.7475 32.9725 23.9549C32.9725 23.1624 32.6589 22.402 32.1001 21.8399L20.1001 9.83994C19.538 9.28118 18.7777 8.96756 17.9851 8.96756C17.1925 8.96756 16.4322 9.28118 15.8701 9.83994L7.7701 17.9999C7.205 18.5617 6.75744 19.2303 6.45354 19.9669C6.14964 20.7034 5.9955 21.4932 6.0001 22.2899C6.27227 33.8168 10.8783 44.8178 18.9001 53.0999C27.1823 61.1217 38.1832 65.7278 49.7101 65.9999ZM18.0001 16.2299L25.7701 23.9999L21.9001 27.8699C21.5336 28.2133 21.2591 28.6431 21.1018 29.1201C20.9446 29.5971 20.9096 30.1059 21.0001 30.5999C22.1214 35.611 24.4954 40.2559 27.9001 44.0999C31.7412 47.509 36.3872 49.8836 41.4001 50.9999C41.8866 51.1016 42.3908 51.0809 42.8673 50.9395C43.3438 50.7981 43.7778 50.5405 44.1301 50.1899L48.0001 46.2299L55.7701 53.9999L49.7701 59.9999C39.8213 59.7438 30.3286 55.7733 23.1601 48.8699C16.2388 41.6985 12.2569 32.1933 12.0001 22.2299L18.0001 16.2299ZM60.0001 32.9999H66.0001C66.0779 29.4329 65.4327 25.8871 64.1033 22.5762C62.774 19.2652 60.7881 16.2577 58.2652 13.7348C55.7424 11.212 52.7348 9.22603 49.4239 7.89669C46.1129 6.56736 42.5671 5.92214 39.0001 5.99994V11.9999C41.7838 11.9036 44.5576 12.381 47.149 13.4022C49.7404 14.4235 52.094 15.9669 54.0636 17.9365C56.0331 19.906 57.5765 22.2597 58.5978 24.8511C59.6191 27.4425 60.0964 30.2162 60.0001 32.9999Z" fill="url(#paint0_linear_9_1399)"/>
<path d="M39 24C45.3 24 48 26.7 48 33H54C54 23.34 48.66 18 39 18V24Z" fill="url(#paint1_linear_9_1399)"/>
<defs>
<linearGradient id="paint0_linear_9_1399" x1="6" y1="35.9968" x2="66.0064" y2="35.9968" gradientUnits="userSpaceOnUse">
<stop stop-color="#3b4b9b"/>
<stop offset="1" stop-color="#cb176d"/>
</linearGradient>
<linearGradient id="paint1_linear_9_1399" x1="39" y1="25.5" x2="54" y2="25.5" gradientUnits="userSpaceOnUse">
<stop stop-color="#3b4b9b"/>
<stop offset="1" stop-color="#cb176d"/>
</linearGradient>
</defs>
</svg>
