<svg width="72" height="72" viewBox="0 0 72 72" fill="none" xmlns="http://www.w3.org/2000/svg">
<path d="M56.25 29.25C56.25 23.8794 54.1165 18.7287 50.3189 14.9311C46.5213 11.1335 41.3706 9 36 9C30.6294 9 25.4787 11.1335 21.6811 14.9311C17.8835 18.7287 15.75 23.8794 15.75 29.25C15.75 37.557 22.3965 48.384 36 61.353C49.6035 48.384 56.25 37.557 56.25 29.25ZM36 67.5C19.4985 52.5015 11.25 39.7485 11.25 29.25C11.25 22.6859 13.8576 16.3906 18.4991 11.7491C23.1406 7.10758 29.4359 4.5 36 4.5C42.5641 4.5 48.8594 7.10758 53.5009 11.7491C58.1424 16.3906 60.75 22.6859 60.75 29.25C60.75 39.7485 52.5015 52.5015 36 67.5Z" fill="url(#paint0_linear_9_1392)"/>
<path d="M36 31.5C37.1935 31.5 38.3381 31.0259 39.182 30.182C40.0259 29.3381 40.5 28.1935 40.5 27C40.5 25.8065 40.0259 24.6619 39.182 23.818C38.3381 22.9741 37.1935 22.5 36 22.5C34.8065 22.5 33.6619 22.9741 32.818 23.818C31.9741 24.6619 31.5 25.8065 31.5 27C31.5 28.1935 31.9741 29.3381 32.818 30.182C33.6619 31.0259 34.8065 31.5 36 31.5ZM36 36C33.6131 36 31.3239 35.0518 29.636 33.364C27.9482 31.6761 27 29.3869 27 27C27 24.6131 27.9482 22.3239 29.636 20.636C31.3239 18.9482 33.6131 18 36 18C38.3869 18 40.6761 18.9482 42.364 20.636C44.0518 22.3239 45 24.6131 45 27C45 29.3869 44.0518 31.6761 42.364 33.364C40.6761 35.0518 38.3869 36 36 36ZM60.3 49.5L67.5 67.5H47.25V63H24.75V67.5H4.5L11.7 49.5H60.3ZM55.4535 49.5H16.5465L11.1465 63H60.8535L55.4535 49.5Z" fill="url(#paint1_linear_9_1392)"/>
<defs>
<linearGradient id="paint0_linear_9_1392" x1="11.25" y1="36" x2="60.75" y2="36" gradientUnits="userSpaceOnUse">
<stop stop-color="#3b4b9b"/>
<stop offset="1" stop-color="#3b4b9b"/>
</linearGradient>
<linearGradient id="paint1_linear_9_1392" x1="4.5" y1="42.75" x2="67.5" y2="42.75" gradientUnits="userSpaceOnUse">
<stop stop-color="#3b4b9b"/>
<stop offset="1" stop-color="#3b4b9b"/>
</linearGradient>
</defs>
</svg>
