<svg xmlns="http://www.w3.org/2000/svg" width="438.441" height="300.8" viewBox="0 0 438.441 300.8">
  <path id="Icon" d="M133.408,346.261C228.758,383.472,309.9,390.72,401.853,332.8c-.674,1.011-18.863,27.958-66.7,41.768,10.105,13.811,23.916,29.642,23.916,29.642a158.609,158.609,0,0,0,86.568-25.6,65.676,65.676,0,0,0,29.3-60.968,450.412,450.412,0,0,0-28.968-120.589,141.4,141.4,0,0,0-118.9-90.611c-4.716-.337-8.084-.337-10.105-.337l-5.389,5.389c61.642,17.516,92.295,44.8,92.968,45.811a339.622,339.622,0,0,0-301.811-2.021s30.316-29.979,97.347-45.811l-4.042-4.042a145.524,145.524,0,0,0-20.884,1.684,141.977,141.977,0,0,0-108.8,89.263A463.364,463.364,0,0,0,37.053,322.357a65.02,65.02,0,0,0,27.621,58.611,153.6,153.6,0,0,0,84.547,25.263s12.126-15.832,24.253-29.979c-45.474-13.474-64-40.421-64.337-41.432l8.558,4.37a172.042,172.042,0,0,0,15.713,7.071Zm52.866-29.293c-21.9-.674-39.074-19.2-38.4-41.432a39.754,39.754,0,0,1,38.4-38.4c21.9.674,39.074,19.2,38.4,41.432-1.011,20.885-17.516,37.727-38.4,38.4Zm137.431,0c-21.895-.674-39.074-19.2-38.4-41.432a39.754,39.754,0,0,1,38.4-38.4c21.895.674,39.074,19.2,38.4,41.432A39.751,39.751,0,0,1,323.705,316.968Z" transform="translate(-36.811 -105.431)" fill="#fff"/>
</svg>