<svg xmlns="http://www.w3.org/2000/svg" width="264.277" height="300.8" viewBox="0 0 264.277 300.8">
  <g id="tik-tok" transform="translate(-31.423 -0.39)">
    <path id="Path_1144" data-name="Path 1144" d="M295.557,75.706a75.789,75.789,0,0,1-45.8-15.3,75.966,75.966,0,0,1-28.814-45.8A76.363,76.363,0,0,1,219.488.39H170.374v134.2l-.059,73.51a44.524,44.524,0,1,1-30.538-42.183V116.053a96.647,96.647,0,0,0-14.163-1.047,94.178,94.178,0,0,0-70.768,31.65,92.294,92.294,0,0,0,4.166,127.267,95.814,95.814,0,0,0,8.873,7.749,94.187,94.187,0,0,0,57.729,19.517,96.649,96.649,0,0,0,14.163-1.041,93.867,93.867,0,0,0,52.439-26.225A91.951,91.951,0,0,0,219.8,208.486l-.253-109.773A124.074,124.074,0,0,0,247.131,114.8a124.151,124.151,0,0,0,48.567,9.791v-48.9c.012.012-.129.012-.141.012Z" fill="#fff"/>
  </g>
</svg>